<svg width="17" height="17" viewBox="0 0 17 17" fill="none" xmlns="http://www.w3.org/2000/svg">
<path d="M5.66666 1.41663V3.54163" stroke="#6A6868" stroke-width="1.5" stroke-miterlimit="10" stroke-linecap="round" stroke-linejoin="round"/>
<path d="M11.3333 1.41663V3.54163" stroke="#6A6868" stroke-width="1.5" stroke-miterlimit="10" stroke-linecap="round" stroke-linejoin="round"/>
<path d="M2.47916 6.43872H14.5208" stroke="#6A6868" stroke-width="1.5" stroke-miterlimit="10" stroke-linecap="round" stroke-linejoin="round"/>
<path d="M13.6071 11.1704L11.0996 13.6779C11.0004 13.7771 10.9083 13.9612 10.8871 14.0958L10.7525 15.0521C10.7029 15.3992 10.9438 15.64 11.2908 15.5904L12.2471 15.4558C12.3817 15.4346 12.5729 15.3425 12.665 15.2433L15.1725 12.7358C15.6046 12.3038 15.81 11.8008 15.1725 11.1633C14.5421 10.5329 14.0392 10.7383 13.6071 11.1704Z" stroke="#6A6868" stroke-width="1.5" stroke-miterlimit="10" stroke-linecap="round" stroke-linejoin="round"/>
<path d="M13.2458 11.5316C13.4583 12.2966 14.0534 12.8916 14.8184 13.1041" stroke="#6A6868" stroke-width="1.5" stroke-miterlimit="10" stroke-linecap="round" stroke-linejoin="round"/>
<path d="M8.5 15.5833H5.66667C3.1875 15.5833 2.125 14.1666 2.125 12.0416V6.02079C2.125 3.89579 3.1875 2.47913 5.66667 2.47913H11.3333C13.8125 2.47913 14.875 3.89579 14.875 6.02079V8.49996" stroke="#6A6868" stroke-width="1.5" stroke-miterlimit="10" stroke-linecap="round" stroke-linejoin="round"/>
<path d="M8.49679 9.70414H8.50315" stroke="#6A6868" stroke-width="2" stroke-linecap="round" stroke-linejoin="round"/>
<path d="M5.87515 9.70414H5.88151" stroke="#6A6868" stroke-width="2" stroke-linecap="round" stroke-linejoin="round"/>
<path d="M5.87515 11.8291H5.88151" stroke="#6A6868" stroke-width="2" stroke-linecap="round" stroke-linejoin="round"/>
</svg>
