<svg width="14" height="16" viewBox="0 0 14 16" fill="none" xmlns="http://www.w3.org/2000/svg">
<path d="M2.02206 8.03333C1.74727 8.96666 2.24189 9.76666 3.06625 9.76666H5.26454C5.59428 9.76666 5.86906 10.1 5.81411 10.5667L5.53932 12.7C5.42941 13.3 5.75915 13.9667 6.25376 14.1667C6.69342 14.3667 7.24299 14.1 7.46282 13.7L9.71607 9.63332" stroke="#6A6868" stroke-width="1.5" stroke-miterlimit="10" stroke-linecap="round" stroke-linejoin="round"/>
<path d="M9.71609 3.76666L8.01241 2.16666C7.79258 1.9 7.29797 1.76666 6.96823 1.76666H4.87985C4.22037 1.76666 3.50592 2.36666 3.34105 3.16666L2.71454 5.48" stroke="#6A6868" stroke-width="1.5" stroke-miterlimit="10" stroke-linecap="round" stroke-linejoin="round"/>
<path d="M12.5189 3.76667V10.3C12.5189 11.2333 12.1892 11.5667 11.4198 11.5667H10.8702C10.1008 11.5667 9.77106 11.2333 9.77106 10.3V3.76667C9.77106 2.83333 10.1008 2.5 10.8702 2.5H11.4198C12.1892 2.5 12.5189 2.83333 12.5189 3.76667Z" stroke="#6A6868" stroke-width="1.5" stroke-linecap="round" stroke-linejoin="round"/>
</svg>
