<svg width="14" height="16" viewBox="0 0 14 16" fill="none" xmlns="http://www.w3.org/2000/svg">
<path d="M11.997 7.96667C12.2718 7.03333 11.7772 6.23333 10.9528 6.23333H8.75454C8.4248 6.23333 8.15001 5.9 8.20497 5.43333L8.47976 3.3C8.58967 2.7 8.25993 2.03333 7.76531 1.83333C7.32565 1.63333 6.77608 1.9 6.55625 2.3L4.30301 6.36667" stroke="#6A6868" stroke-width="1.5" stroke-miterlimit="10" stroke-linecap="round" stroke-linejoin="round"/>
<path d="M4.30301 12.2333L6.00668 13.8333C6.22651 14.1 6.72113 14.2333 7.05087 14.2333H9.13924C9.79873 14.2333 10.5132 13.6333 10.678 12.8333L11.3595 10.32" stroke="#6A6868" stroke-width="1.5" stroke-miterlimit="10" stroke-linecap="round" stroke-linejoin="round"/>
<path d="M1.50018 12.2333V5.69999C1.50018 4.76665 1.82993 4.43332 2.59933 4.43332H3.1489C3.9183 4.43332 4.24804 4.76665 4.24804 5.69999V12.2333C4.24804 13.1667 3.9183 13.5 3.1489 13.5H2.59933C1.82993 13.5 1.50018 13.1667 1.50018 12.2333Z" stroke="#6A6868" stroke-width="1.5" stroke-linecap="round" stroke-linejoin="round"/>
</svg>
