<svg width="163" height="40" viewBox="0 0 163 40" fill="none" xmlns="http://www.w3.org/2000/svg">
<path d="M53.3157 19.4487C53.1418 21.2643 52.467 22.6835 51.2914 23.7061C50.1227 24.7217 48.5679 25.2296 46.627 25.2296C45.2635 25.2296 44.0635 24.9096 43.027 24.2696C41.9975 23.6226 41.2009 22.7078 40.6375 21.5252C40.074 20.3357 39.7818 18.9548 39.7609 17.3826V15.7861C39.7609 14.1791 40.0462 12.7635 40.6166 11.5391C41.187 10.3078 42.0044 9.36174 43.0688 8.70087C44.1331 8.03304 45.3644 7.69913 46.7627 7.69913C48.6479 7.69913 50.1644 8.21391 51.3122 9.24348C52.4601 10.2661 53.1279 11.7096 53.3157 13.5739H50.3627C50.2235 12.3496 49.8653 11.4661 49.2879 10.9235C48.7175 10.3809 47.8757 10.1096 46.7627 10.1096C45.4757 10.1096 44.4844 10.5791 43.7888 11.5183C43.1001 12.4574 42.7488 13.8383 42.7348 15.6609V17.1739C42.7348 19.0174 43.0653 20.4226 43.7262 21.3896C44.387 22.3565 45.354 22.84 46.627 22.84C47.7888 22.84 48.6618 22.5791 49.2462 22.0574C49.8305 21.5357 50.2027 20.6661 50.3627 19.4487H53.3157ZM62.4215 18.8957H56.2754V16.6H62.4215V18.8957ZM70.0982 7.93913L75.013 21.0139L79.9278 7.93913H83.7574V25H80.8043V19.3757L81.0965 11.8522L76.0565 25H73.9382L68.9087 11.8626L69.2008 19.3757V25H66.2478V7.93913H70.0982ZM98.0191 21.0243H91.4138L90.0365 25H86.9478L93.3965 7.93913H96.0573L102.516 25H99.4173L98.0191 21.0243ZM92.2486 18.6348H97.1947L94.7217 11.56L92.2486 18.6348ZM108.619 18.6557V25H105.656V7.93913H112.188C114.094 7.93913 115.607 8.43652 116.727 9.4313C117.847 10.4191 118.407 11.7304 118.407 13.3652C118.407 15.0348 117.857 16.3357 116.758 17.2678C115.666 18.193 114.129 18.6557 112.146 18.6557H108.619ZM108.619 16.2765H112.188C113.238 16.2765 114.042 16.0296 114.598 15.5357C115.155 15.0417 115.433 14.3252 115.433 13.3861C115.433 12.4678 115.151 11.7339 114.588 11.1843C114.024 10.6278 113.252 10.3426 112.271 10.3287H108.619V16.2765ZM125.314 25H122.361V7.93913H125.314V25ZM143.691 25H140.728L133.121 12.8957V25H130.157V7.93913H133.121L140.748 20.0852V7.93913H143.691V25ZM161.481 22.7878C160.862 23.5878 160.003 24.1965 158.904 24.6139C157.812 25.0243 156.57 25.2296 155.179 25.2296C153.753 25.2296 152.487 24.9061 151.381 24.2591C150.281 23.6122 149.433 22.687 148.834 21.4835C148.236 20.273 147.927 18.8643 147.906 17.2574V15.9217C147.906 13.3409 148.521 11.327 149.753 9.88C150.991 8.42609 152.716 7.69913 154.928 7.69913C156.828 7.69913 158.334 8.16869 159.447 9.10783C160.567 10.047 161.238 11.4 161.461 13.167H158.56C158.233 11.1078 157.04 10.0783 154.981 10.0783C153.652 10.0783 152.643 10.5583 151.954 11.5183C151.266 12.4783 150.908 13.8835 150.88 15.7339V17.0383C150.88 18.8817 151.269 20.3148 152.048 21.3374C152.828 22.36 153.909 22.8713 155.294 22.8713C156.803 22.8713 157.881 22.527 158.528 21.8383V18.4991H155.012V16.2452H161.481V22.7878Z" fill="#3DB166"/>
<path d="M15.4937 3.95159L6.21292 8.53659C3.2375 10.0066 3.2375 13.2966 6.21292 14.7666L15.4937 19.3516C17.1587 20.1799 19.9029 20.1799 21.5679 19.3516L30.8025 14.7666C33.7625 13.2966 33.7625 10.0183 30.8025 8.54825L21.5679 3.96325C19.9029 3.12325 17.1587 3.12325 15.4937 3.95159Z" stroke="#3DB166" stroke-width="1.5" stroke-linecap="round" stroke-linejoin="round"/>
<path d="M8.67957 16.26L8.66415 21.7317C8.66415 23.2133 10.175 24.8 12.025 25.2667L16.9429 26.5033C17.7908 26.7133 19.1937 26.7133 20.0571 26.5033L24.975 25.2667C26.825 24.8 28.3358 23.2133 28.3358 21.7317V16.3183" stroke="#3DB166" stroke-width="1.5" stroke-linecap="round" stroke-linejoin="round"/>
<path d="M32.9917 18.5V11.5" stroke="#3DB166" stroke-width="1.5" stroke-linecap="round" stroke-linejoin="round"/>
</svg>
