<svg width="14" height="14" viewBox="0 0 14 14" fill="none" xmlns="http://www.w3.org/2000/svg">
<path d="M10.1617 2.57247H3.14417L4.24082 1.47583C4.40999 1.30667 4.40999 1.02663 4.24082 0.857466C4.07165 0.688299 3.79165 0.688299 3.62249 0.857466L1.77915 2.70082C1.73832 2.74165 1.70917 2.78831 1.68583 2.84081C1.6625 2.89331 1.65082 2.95163 1.65082 3.00997C1.65082 3.0683 1.6625 3.12666 1.68583 3.17916C1.70917 3.23166 1.73832 3.27832 1.77915 3.31915L3.62249 5.16247C3.70999 5.24997 3.82082 5.29082 3.93165 5.29082C4.04249 5.29082 4.15332 5.24997 4.24082 5.16247C4.40999 4.9933 4.40999 4.7133 4.24082 4.54414L3.14417 3.44747H10.1617C10.885 3.44747 11.4742 4.03663 11.4742 4.75997V6.69664C11.4742 6.9358 11.6725 7.13414 11.9117 7.13414C12.1508 7.13414 12.3492 6.9358 12.3492 6.69664V4.75997C12.3492 3.55247 11.3692 2.57247 10.1617 2.57247Z" fill="#3DB166"/>
<path opacity="0.4" d="M12.3492 10.99C12.3492 10.9317 12.3375 10.8733 12.3141 10.8208C12.2908 10.7683 12.2617 10.7217 12.2208 10.6808L10.3775 8.83751C10.2083 8.66835 9.92833 8.66835 9.75916 8.83751C9.59 9.00668 9.59 9.28668 9.75916 9.45585L10.8558 10.5525H3.83832C3.11498 10.5525 2.52582 9.96335 2.52582 9.24002V7.30334C2.52582 7.06418 2.32748 6.86584 2.08832 6.86584C1.84915 6.86584 1.65082 7.06418 1.65082 7.30334V9.24002C1.65082 10.4475 2.63082 11.4275 3.83832 11.4275H10.8558L9.75916 12.5241C9.59 12.6933 9.59 12.9734 9.75916 13.1425C9.84667 13.23 9.9575 13.2708 10.0683 13.2708C10.1792 13.2708 10.29 13.23 10.3775 13.1425L12.2208 11.2992C12.2617 11.2583 12.2908 11.2117 12.3141 11.1592C12.3375 11.1067 12.3492 11.0483 12.3492 10.99Z" fill="#3DB166"/>
</svg>
