<svg width="19" height="19" viewBox="0 0 19 19" fill="none" xmlns="http://www.w3.org/2000/svg">
<path d="M9.10415 17.2188C4.63123 17.2188 0.989563 13.5771 0.989563 9.10421C0.989563 4.63129 4.63123 0.989624 9.10415 0.989624C13.5771 0.989624 17.2187 4.63129 17.2187 9.10421C17.2187 13.5771 13.5771 17.2188 9.10415 17.2188ZM9.10415 2.17712C5.2804 2.17712 2.17706 5.28837 2.17706 9.10421C2.17706 12.92 5.2804 16.0313 9.10415 16.0313C12.9279 16.0313 16.0312 12.92 16.0312 9.10421C16.0312 5.28837 12.9279 2.17712 9.10415 2.17712Z" fill="#3DB166"/>
<path d="M16.8203 18.013C16.9884 18.1811 17.2035 18.2604 17.4167 18.2604C17.6298 18.2604 17.8449 18.1811 18.013 18.013C18.3403 17.6858 18.3403 17.1475 18.013 16.8203L16.4297 15.237C16.1025 14.9098 15.5642 14.9098 15.237 15.237C14.9098 15.5642 14.9098 16.1025 15.237 16.4297L16.8203 18.013Z" fill="#3DB166" stroke="#3DB166" stroke-width="0.5"/>
</svg>
